<svg id="visual" viewBox="0 0 900 300" width="900" height="300" xmlns="http://www.w3.org/2000/svg" xmlns:xlink="http://www.w3.org/1999/xlink" version="1.1"><rect x="0" y="0" width="900" height="300" fill="#202731"></rect><path d="M0 227L21.5 224.5C43 222 86 217 128.8 208.2C171.7 199.3 214.3 186.7 257.2 186.3C300 186 343 198 385.8 207.3C428.7 216.7 471.3 223.3 514.2 222.7C557 222 600 214 642.8 206C685.7 198 728.3 190 771.2 194.5C814 199 857 216 878.5 224.5L900 233L900 0L878.5 0C857 0 814 0 771.2 0C728.3 0 685.7 0 642.8 0C600 0 557 0 514.2 0C471.3 0 428.7 0 385.8 0C343 0 300 0 257.2 0C214.3 0 171.7 0 128.8 0C86 0 43 0 21.5 0L0 0Z" fill="#ff6f61"></path><path d="M0 119L21.5 125.5C43 132 86 145 128.8 157.5C171.7 170 214.3 182 257.2 185.7C300 189.3 343 184.7 385.8 182.2C428.7 179.7 471.3 179.3 514.2 173.8C557 168.3 600 157.7 642.8 151.8C685.7 146 728.3 145 771.2 153.5C814 162 857 180 878.5 189L900 198L900 0L878.5 0C857 0 814 0 771.2 0C728.3 0 685.7 0 642.8 0C600 0 557 0 514.2 0C471.3 0 428.7 0 385.8 0C343 0 300 0 257.2 0C214.3 0 171.7 0 128.8 0C86 0 43 0 21.5 0L0 0Z" fill="#f76455"></path><path d="M0 94L21.5 98.5C43 103 86 112 128.8 118.5C171.7 125 214.3 129 257.2 128.3C300 127.7 343 122.3 385.8 120.7C428.7 119 471.3 121 514.2 128.2C557 135.3 600 147.7 642.8 144.5C685.7 141.3 728.3 122.7 771.2 120.2C814 117.7 857 131.3 878.5 138.2L900 145L900 0L878.5 0C857 0 814 0 771.2 0C728.3 0 685.7 0 642.8 0C600 0 557 0 514.2 0C471.3 0 428.7 0 385.8 0C343 0 300 0 257.2 0C214.3 0 171.7 0 128.8 0C86 0 43 0 21.5 0L0 0Z" fill="#ee5849"></path><path d="M0 115L21.5 107C43 99 86 83 128.8 76.5C171.7 70 214.3 73 257.2 75.8C300 78.7 343 81.3 385.8 84.3C428.7 87.3 471.3 90.7 514.2 90C557 89.3 600 84.7 642.8 78.5C685.7 72.3 728.3 64.7 771.2 63.7C814 62.7 857 68.3 878.5 71.2L900 74L900 0L878.5 0C857 0 814 0 771.2 0C728.3 0 685.7 0 642.8 0C600 0 557 0 514.2 0C471.3 0 428.7 0 385.8 0C343 0 300 0 257.2 0C214.3 0 171.7 0 128.8 0C86 0 43 0 21.5 0L0 0Z" fill="#e64c3d"></path><path d="M0 73L21.5 65.5C43 58 86 43 128.8 36.3C171.7 29.7 214.3 31.3 257.2 37.8C300 44.3 343 55.7 385.8 58.5C428.7 61.3 471.3 55.7 514.2 55.7C557 55.7 600 61.3 642.8 63.2C685.7 65 728.3 63 771.2 60.5C814 58 857 55 878.5 53.5L900 52L900 0L878.5 0C857 0 814 0 771.2 0C728.3 0 685.7 0 642.8 0C600 0 557 0 514.2 0C471.3 0 428.7 0 385.8 0C343 0 300 0 257.2 0C214.3 0 171.7 0 128.8 0C86 0 43 0 21.5 0L0 0Z" fill="#dd3f31"></path></svg>